{
	"asset":{
		"generator":"Khronos glTF Blender I/O v4.2.69",
		"version":"2.0"
	},
	"scene":0,
	"scenes":[
		{
			"name":"Scene",
			"nodes":[
				4
			]
		}
	],
	"nodes":[
		{
			"mesh":0,
			"name":"Bun_top",
			"translation":[
				0,
				0.6960095167160034,
				0
			]
		},
		{
			"mesh":1,
			"name":"cheese",
			"translation":[
				0,
				0.4417415261268616,
				0
			]
		},
		{
			"mesh":2,
			"name":"Patty_bottom",
			"translation":[
				0,
				0.2828240692615509,
				0
			]
		},
		{
			"mesh":3,
			"name":"Patty_top",
			"translation":[
				0,
				0.5053085088729858,
				0
			]
		},
		{
			"children":[
				0,
				1,
				2,
				3
			],
			"mesh":4,
			"name":"Bun_bottom"
		}
	],
	"animations":[
		{
			"channels":[
				{
					"sampler":0,
					"target":{
						"node":4,
						"path":"translation"
					}
				},
				{
					"sampler":1,
					"target":{
						"node":4,
						"path":"rotation"
					}
				},
				{
					"sampler":2,
					"target":{
						"node":4,
						"path":"scale"
					}
				}
			],
			"name":"Roundcube.001Action",
			"samplers":[
				{
					"input":20,
					"interpolation":"LINEAR",
					"output":21
				},
				{
					"input":20,
					"interpolation":"LINEAR",
					"output":22
				},
				{
					"input":20,
					"interpolation":"LINEAR",
					"output":23
				}
			]
		},
		{
			"channels":[
				{
					"sampler":0,
					"target":{
						"node":0,
						"path":"translation"
					}
				},
				{
					"sampler":1,
					"target":{
						"node":0,
						"path":"rotation"
					}
				}
			],
			"name":"RoundcubeAction",
			"samplers":[
				{
					"input":24,
					"interpolation":"LINEAR",
					"output":25
				},
				{
					"input":24,
					"interpolation":"LINEAR",
					"output":26
				}
			]
		},
		{
			"channels":[
				{
					"sampler":0,
					"target":{
						"node":1,
						"path":"weights"
					}
				}
			],
			"name":"KeyAction",
			"samplers":[
				{
					"input":27,
					"interpolation":"LINEAR",
					"output":28
				}
			]
		},
		{
			"channels":[
				{
					"sampler":0,
					"target":{
						"node":1,
						"path":"translation"
					}
				},
				{
					"sampler":1,
					"target":{
						"node":1,
						"path":"rotation"
					}
				}
			],
			"name":"PlaneAction",
			"samplers":[
				{
					"input":24,
					"interpolation":"LINEAR",
					"output":29
				},
				{
					"input":24,
					"interpolation":"LINEAR",
					"output":30
				}
			]
		},
		{
			"channels":[
				{
					"sampler":0,
					"target":{
						"node":2,
						"path":"translation"
					}
				},
				{
					"sampler":1,
					"target":{
						"node":2,
						"path":"rotation"
					}
				}
			],
			"name":"CircleAction",
			"samplers":[
				{
					"input":24,
					"interpolation":"LINEAR",
					"output":31
				},
				{
					"input":24,
					"interpolation":"LINEAR",
					"output":32
				}
			]
		},
		{
			"channels":[
				{
					"sampler":0,
					"target":{
						"node":3,
						"path":"translation"
					}
				},
				{
					"sampler":1,
					"target":{
						"node":3,
						"path":"rotation"
					}
				}
			],
			"name":"Circle.001Action",
			"samplers":[
				{
					"input":24,
					"interpolation":"LINEAR",
					"output":33
				},
				{
					"input":24,
					"interpolation":"LINEAR",
					"output":34
				}
			]
		}
	],
	"materials":[
		{
			"doubleSided":true,
			"name":"Material.003",
			"pbrMetallicRoughness":{
				"metallicFactor":0,
				"roughnessFactor":0.5
			}
		},
		{
			"doubleSided":true,
			"name":"Material.002",
			"pbrMetallicRoughness":{
				"baseColorFactor":[
					0.8000229597091675,
					0.7101073265075684,
					0.2210918664932251,
					1
				],
				"metallicFactor":0,
				"roughnessFactor":0.5
			}
		},
		{
			"doubleSided":true,
			"name":"Material.001",
			"pbrMetallicRoughness":{
				"baseColorFactor":[
					0.4700620770454407,
					0.12551121413707733,
					0.0677277147769928,
					1
				],
				"metallicFactor":0,
				"roughnessFactor":0.5
			}
		},
		{
			"doubleSided":true,
			"name":"Material.004",
			"pbrMetallicRoughness":{
				"baseColorFactor":[
					0.8004660606384277,
					0.0075201778672635555,
					0.0058074588887393475,
					1
				],
				"metallicFactor":0,
				"roughnessFactor":0.5
			}
		}
	],
	"meshes":[
		{
			"extras":{
				"Roundcube":true,
				"change":false,
				"radius":1.0,
				"size":[
					0.0,
					0.0,
					0.0
				],
				"arc_div":8,
				"lin_div":0.0,
				"div_type":"CORNERS",
				"odd_axis_align":false,
				"no_limit":false
			},
			"name":"Roundcube",
			"primitives":[
				{
					"attributes":{
						"POSITION":0,
						"NORMAL":1
					},
					"indices":2,
					"material":0
				}
			]
		},
		{
			"name":"Plane",
			"primitives":[
				{
					"attributes":{
						"POSITION":3,
						"NORMAL":4,
						"TEXCOORD_0":5
					},
					"indices":6,
					"material":1
				}
			]
		},
		{
			"name":"Circle",
			"primitives":[
				{
					"attributes":{
						"POSITION":7,
						"NORMAL":8,
						"TEXCOORD_0":9
					},
					"indices":10,
					"material":2
				}
			]
		},
		{
			"name":"Circle.002",
			"primitives":[
				{
					"attributes":{
						"POSITION":11,
						"NORMAL":12,
						"TEXCOORD_0":13
					},
					"indices":10,
					"material":2
				},
				{
					"attributes":{
						"POSITION":14,
						"NORMAL":15,
						"TEXCOORD_0":16
					},
					"indices":10,
					"material":3
				}
			]
		},
		{
			"extras":{
				"Roundcube":true,
				"change":false,
				"radius":1.0,
				"size":[
					0.0,
					0.0,
					0.0
				],
				"arc_div":8,
				"lin_div":0.0,
				"div_type":"CORNERS",
				"odd_axis_align":false,
				"no_limit":false
			},
			"name":"Mesh",
			"primitives":[
				{
					"attributes":{
						"POSITION":17,
						"NORMAL":18
					},
					"indices":19,
					"material":0
				}
			]
		}
	],
	"accessors":[
		{
			"bufferView":0,
			"componentType":5126,
			"count":18370,
			"max":[
				0.9833765029907227,
				0.5634756684303284,
				0.9833765029907227
			],
			"min":[
				-0.9833765029907227,
				0,
				-0.9833765029907227
			],
			"type":"VEC3"
		},
		{
			"bufferView":1,
			"componentType":5126,
			"count":18370,
			"type":"VEC3"
		},
		{
			"bufferView":2,
			"componentType":5123,
			"count":110208,
			"type":"SCALAR"
		},
		{
			"bufferView":3,
			"componentType":5126,
			"count":15913,
			"max":[
				0.9041982889175415,
				0.06178733706474304,
				0.9096249341964722
			],
			"min":[
				-0.9021797180175781,
				-0.011719990521669388,
				-0.9075137972831726
			],
			"type":"VEC3"
		},
		{
			"bufferView":4,
			"componentType":5126,
			"count":15913,
			"type":"VEC3"
		},
		{
			"bufferView":5,
			"componentType":5126,
			"count":15913,
			"type":"VEC2"
		},
		{
			"bufferView":6,
			"componentType":5123,
			"count":92160,
			"type":"SCALAR"
		},
		{
			"bufferView":7,
			"componentType":5126,
			"count":14338,
			"max":[
				0.9332413673400879,
				0.17463891208171844,
				0.9441697597503662
			],
			"min":[
				-0.9336750507354736,
				-0.017714304849505424,
				-0.9391669631004333
			],
			"type":"VEC3"
		},
		{
			"bufferView":8,
			"componentType":5126,
			"count":14338,
			"type":"VEC3"
		},
		{
			"bufferView":9,
			"componentType":5126,
			"count":14338,
			"type":"VEC2"
		},
		{
			"bufferView":10,
			"componentType":5123,
			"count":86016,
			"type":"SCALAR"
		},
		{
			"bufferView":11,
			"componentType":5126,
			"count":14338,
			"max":[
				0.9332413673400879,
				0.17463891208171844,
				0.9441697597503662
			],
			"min":[
				-0.9336750507354736,
				-0.017714304849505424,
				-0.9391669631004333
			],
			"type":"VEC3"
		},
		{
			"bufferView":12,
			"componentType":5126,
			"count":14338,
			"type":"VEC3"
		},
		{
			"bufferView":13,
			"componentType":5126,
			"count":14338,
			"type":"VEC2"
		},
		{
			"bufferView":14,
			"componentType":5126,
			"count":14338,
			"max":[
				0.720736563205719,
				0.24588418006896973,
				0.7247975468635559
			],
			"min":[
				-0.719238817691803,
				0.13867397606372833,
				-0.7217167019844055
			],
			"type":"VEC3"
		},
		{
			"bufferView":15,
			"componentType":5126,
			"count":14338,
			"type":"VEC3"
		},
		{
			"bufferView":16,
			"componentType":5126,
			"count":14338,
			"type":"VEC2"
		},
		{
			"bufferView":17,
			"componentType":5126,
			"count":18434,
			"max":[
				0.9834507703781128,
				0.280933678150177,
				0.9834507703781128
			],
			"min":[
				-0.9834507703781128,
				0.008123434148728848,
				-0.9834507703781128
			],
			"type":"VEC3"
		},
		{
			"bufferView":18,
			"componentType":5126,
			"count":18434,
			"type":"VEC3"
		},
		{
			"bufferView":19,
			"componentType":5123,
			"count":110592,
			"type":"SCALAR"
		},
		{
			"bufferView":20,
			"componentType":5126,
			"count":58,
			"max":[
				1.9333333333333333
			],
			"min":[
				0.03333333333333333
			],
			"type":"SCALAR"
		},
		{
			"bufferView":21,
			"componentType":5126,
			"count":58,
			"type":"VEC3"
		},
		{
			"bufferView":22,
			"componentType":5126,
			"count":58,
			"type":"VEC4"
		},
		{
			"bufferView":23,
			"componentType":5126,
			"count":58,
			"type":"VEC3"
		},
		{
			"bufferView":24,
			"componentType":5126,
			"count":38,
			"max":[
				1.2666666666666666
			],
			"min":[
				0.03333333333333333
			],
			"type":"SCALAR"
		},
		{
			"bufferView":25,
			"componentType":5126,
			"count":38,
			"type":"VEC3"
		},
		{
			"bufferView":26,
			"componentType":5126,
			"count":38,
			"type":"VEC4"
		},
		{
			"bufferView":27,
			"componentType":5126,
			"count":55,
			"max":[
				1.8333333333333333
			],
			"min":[
				0.03333333333333333
			],
			"type":"SCALAR"
		},
		{
			"bufferView":28,
			"componentType":5126,
			"count":110,
			"type":"SCALAR"
		},
		{
			"bufferView":29,
			"componentType":5126,
			"count":38,
			"type":"VEC3"
		},
		{
			"bufferView":30,
			"componentType":5126,
			"count":38,
			"type":"VEC4"
		},
		{
			"bufferView":31,
			"componentType":5126,
			"count":38,
			"type":"VEC3"
		},
		{
			"bufferView":32,
			"componentType":5126,
			"count":38,
			"type":"VEC4"
		},
		{
			"bufferView":33,
			"componentType":5126,
			"count":38,
			"type":"VEC3"
		},
		{
			"bufferView":34,
			"componentType":5126,
			"count":38,
			"type":"VEC4"
		}
	],
	"bufferViews":[
		{
			"buffer":0,
			"byteLength":220440,
			"byteOffset":0,
			"target":34962
		},
		{
			"buffer":0,
			"byteLength":220440,
			"byteOffset":220440,
			"target":34962
		},
		{
			"buffer":0,
			"byteLength":220416,
			"byteOffset":440880,
			"target":34963
		},
		{
			"buffer":0,
			"byteLength":190956,
			"byteOffset":661296,
			"target":34962
		},
		{
			"buffer":0,
			"byteLength":190956,
			"byteOffset":852252,
			"target":34962
		},
		{
			"buffer":0,
			"byteLength":127304,
			"byteOffset":1043208,
			"target":34962
		},
		{
			"buffer":0,
			"byteLength":184320,
			"byteOffset":1170512,
			"target":34963
		},
		{
			"buffer":0,
			"byteLength":172056,
			"byteOffset":1354832,
			"target":34962
		},
		{
			"buffer":0,
			"byteLength":172056,
			"byteOffset":1526888,
			"target":34962
		},
		{
			"buffer":0,
			"byteLength":114704,
			"byteOffset":1698944,
			"target":34962
		},
		{
			"buffer":0,
			"byteLength":172032,
			"byteOffset":1813648,
			"target":34963
		},
		{
			"buffer":0,
			"byteLength":172056,
			"byteOffset":1985680,
			"target":34962
		},
		{
			"buffer":0,
			"byteLength":172056,
			"byteOffset":2157736,
			"target":34962
		},
		{
			"buffer":0,
			"byteLength":114704,
			"byteOffset":2329792,
			"target":34962
		},
		{
			"buffer":0,
			"byteLength":172056,
			"byteOffset":2444496,
			"target":34962
		},
		{
			"buffer":0,
			"byteLength":172056,
			"byteOffset":2616552,
			"target":34962
		},
		{
			"buffer":0,
			"byteLength":114704,
			"byteOffset":2788608,
			"target":34962
		},
		{
			"buffer":0,
			"byteLength":221208,
			"byteOffset":2903312,
			"target":34962
		},
		{
			"buffer":0,
			"byteLength":221208,
			"byteOffset":3124520,
			"target":34962
		},
		{
			"buffer":0,
			"byteLength":221184,
			"byteOffset":3345728,
			"target":34963
		},
		{
			"buffer":0,
			"byteLength":232,
			"byteOffset":3566912
		},
		{
			"buffer":0,
			"byteLength":696,
			"byteOffset":3567144
		},
		{
			"buffer":0,
			"byteLength":928,
			"byteOffset":3567840
		},
		{
			"buffer":0,
			"byteLength":696,
			"byteOffset":3568768
		},
		{
			"buffer":0,
			"byteLength":152,
			"byteOffset":3569464
		},
		{
			"buffer":0,
			"byteLength":456,
			"byteOffset":3569616
		},
		{
			"buffer":0,
			"byteLength":608,
			"byteOffset":3570072
		},
		{
			"buffer":0,
			"byteLength":220,
			"byteOffset":3570680
		},
		{
			"buffer":0,
			"byteLength":440,
			"byteOffset":3570900
		},
		{
			"buffer":0,
			"byteLength":456,
			"byteOffset":3571340
		},
		{
			"buffer":0,
			"byteLength":608,
			"byteOffset":3571796
		},
		{
			"buffer":0,
			"byteLength":456,
			"byteOffset":3572404
		},
		{
			"buffer":0,
			"byteLength":608,
			"byteOffset":3572860
		},
		{
			"buffer":0,
			"byteLength":456,
			"byteOffset":3573468
		},
		{
			"buffer":0,
			"byteLength":608,
			"byteOffset":3573924
		}
	],
	"buffers":[
		{
			"byteLength":3574532,
			"uri":"burger.bin"
		}
	]
}
